#!OML:ASF E:\emotionWalksFemale\Project 1\Capture day 1\Session 1\Female1.ASF
:FULLY-SPECIFIED
:DEGREES
2378
root 9.62642 14.9701 -36.6205 -351.514 -2.99439 -5.09922
lowerback 17.4719 0.555395 0.104739
upperback -2.51505 0.811238 0.375269
thorax -12.6694 0.387289 0.129645
lowerneck -8.50024 -0.501686 -2.7343
upperneck -2.86599 -0.431668 5.20631
head 0.569189 -0.127446 2.09831
rclavicle 8.44835e-015 -7.95139e-015
rhumerus -52.5677 21.0455 -103.687
rradius 45.8349
rwrist -22.5097
rhand 11.3008 -60.8364
rfingers 7.12502
rthumb -143.641 812.936
lclavicle 8.44835e-015 -7.95139e-015
lhumerus -44.6013 18.3828 71.1531
lradius 39.0694
lwrist -14.4169
lhand -6.19678 -31.4508
lfingers 7.12502
lthumb 19.6432 -2.42321
rfemur -3.03853 1.64688 32.3443
rtibia 22.7754
rfoot -24.3307 -19.9081
rtoes -4.70823
lfemur -43.9101 -18.9982 0.428803
ltibia 32.2116
lfoot -17.116 19.1894
ltoes -20.5688
2379
root 9.65583 14.9653 -36.5553 -351.223 -2.92438 -5.16731
lowerback 17.5968 0.519714 0.0672367
upperback -2.45025 0.750069 0.334142
thorax -12.6683 0.359467 0.121681
lowerneck -9.25766 -0.525054 -2.68361
upperneck -2.81337 -0.45832 5.27793
head 0.716976 -0.129669 2.11584
rclavicle 7.35503e-015 -2.46493e-014
rhumerus -52.2322 21.0908 -103.638
rradius 45.6256
rwrist -22.2737
rhand 11.4302 -60.4285
rfingers 7.12502
rthumb -143.518 813.375
lclavicle 7.35503e-015 -2.46493e-014
lhumerus -44.2093 18.6019 71.1479
lradius 39.1028
lwrist -15.5135
lhand -7.2758 -31.7801
lfingers 7.12502
lthumb 18.6056 -2.64986
rfemur -2.99493 1.47447 32.2737
rtibia 22.5952
rfoot -24.1057 -19.9557
rtoes -6.12371
lfemur -44.131 -18.7005 0.23193
ltibia 32.3827
lfoot -16.6621 18.4935
ltoes -20.4418
2380
root 9.67839 14.9643 -36.4955 -350.691 -3.06389 -5.2173
lowerback 17.6072 0.566732 -0.19887
upperback -2.54433 0.753888 0.329544
thorax -12.7863 0.380431 0.266415
lowerneck -9.75169 -0.522162 -2.8262
upperneck -2.79674 -0.434759 5.55015
head 0.810042 -0.105649 2.23558
rclavicle 4.47266e-015 -1.90833e-014
rhumerus -52.0934 21.0291 -103.526
rradius 45.4416
rwrist -21.9665
rhand 11.8521 -60.4135
rfingers 7.12502
rthumb -143.119 813.491
lclavicle 4.47266e-015 -1.90833e-014
lhumerus -43.9827 18.7708 71.1449
lradius 39.2217
lwrist -16.4746
lhand -8.21549 -31.853
lfingers 7.12502
lthumb 17.7015 -2.63871
rfemur -3.18452 1.60113 32.1849
rtibia 22.4036
rfoot -23.7588 -19.9684
rtoes -7.37558
lfemur -44.4847 -17.9948 -0.0290454
ltibia 32.6008
lfoot -16.0505 17.8985
ltoes -22.0424
2381
root 9.71124 14.9605 -36.423 -350.732 -3.08046 -5.33572
lowerback 18.0151 0.51201 -0.221704
upperback -2.49061 0.672938 0.312932
thorax -12.9648 0.343293 0.281101
lowerneck -9.61955 -0.484682 -2.93412
upperneck -3.16938 -0.362279 5.83422
head 0.668025 -0.0696939 2.34925
rclavicle -1.78906e-015 -7.95139e-015
rhumerus -52.0639 21.1127 -103.628
rradius 45.0786
rwrist -21.6287
rhand 12.1212 -60.1347
rfingers 7.12502
rthumb -142.865 813.836
lclavicle -1.78906e-015 -7.95139e-015
lhumerus -43.9192 18.801 71.0853
lradius 39.4016
lwrist -17.1513
lhand -9.1258 -31.6091
lfingers 7.12502
lthumb 16.8253 -2.31808
rfemur -2.6779 1.57368 32.1506
rtibia 22.0834
rfoot -23.5565 -19.9875
rtoes -8.29616
lfemur -44.2646 -17.8778 -0.278263
ltibia 32.8043
lfoot -15.4505 17.5614
ltoes -22.8655
2382
root 9.74535 14.9603 -36.3529 -350.311 -3.64185 -5.53985
lowerback 17.9681 0.660117 -0.318928
upperback -2.57669 0.842508 0.260889
thorax -13.0386 0.426738 0.229554
lowerneck -9.34525 -0.450715 -2.9643
upperneck -3.65733 -0.297927 6.08335
head 0.464231 -0.0431098 2.43592
rclavicle 1.17283e-014 -1.03368e-014
rhumerus -52.1416 21.1068 -103.775
rradius 44.8841
rwrist -21.4263
rhand 12.1517 -59.7449
rfingers 7.12502
rthumb -142.836 814.233
lclavicle 1.17283e-014 -1.03368e-014
lhumerus -43.9115 18.7488 70.9213
lradius 39.4611
lwrist -17.7848
lhand -9.9698 -31.7923
lfingers 7.12502
lthumb 16.0127 -2.43405
rfemur -2.65017 1.87446 32.0479
rtibia 21.6639
rfoot -23.2287 -19.7503
rtoes -9.35403
lfemur -44.3843 -17.6241 -0.1209
ltibia 33.0394
lfoot -14.8888 17.2517
ltoes -21.2486
2383
root 9.77582 14.9562 -36.2856 -350.248 -3.39277 -5.57321
lowerback 18.576 0.576054 -0.44308
upperback -2.55514 0.698592 0.253574
thorax -13.3738 0.368709 0.328952
lowerneck -9.66095 -0.47939 -2.98615
upperneck -3.86392 -0.31991 6.21901
head 0.454385 -0.0495436 2.48537
rclavicle 1.78906e-015 -7.15625e-015
rhumerus -52.0908 20.9738 -103.645
rradius 44.9114
rwrist -21.326
rhand 12.4698 -60.0077
rfingers 7.12502
rthumb -142.535 814.049
lclavicle 1.78906e-015 -7.15625e-015
lhumerus -43.6994 18.6011 71.0372
lradius 39.6638
lwrist -18.1707
lhand -9.05133 -31.3543
lfingers 7.12502
lthumb 16.897 -2.06935
rfemur -2.18495 1.6332 31.9839
rtibia 21.1934
rfoot -23.0454 -19.7765
rtoes -9.86922
lfemur -44.4157 -17.5333 -0.359057
ltibia 33.2552
lfoot -14.2255 15.9185
ltoes -19.9195
2384
root 9.80947 14.962 -36.2064 -350.019 -3.44857 -5.65337
lowerback 19.0297 0.611811 -0.586402
upperback -2.71195 0.716229 0.295412
thorax -13.829 0.390749 0.448193
lowerneck -9.40324 -0.540019 -3.00662
upperneck -4.33504 -0.382559 6.16433
head 0.262733 -0.0905232 2.46558
rclavicle -1.43125e-014 1.03368e-014
rhumerus -52.3748 20.747 -103.465
rradius 44.9394
rwrist -21.1643
rhand 12.9039 -60.3886
rfingers 7.12502
rthumb -142.125 813.778
lclavicle -1.43125e-014 1.03368e-014
lhumerus -43.8813 18.413 71.1589
lradius 39.8989
lwrist -18.3864
lhand -4.95374 -31.2714
lfingers 7.12502
lthumb 20.8379 -2.3704
rfemur -1.84874 1.72789 31.8913
rtibia 20.6998
rfoot -22.8172 -19.7396
rtoes -10.0913
lfemur -44.5165 -17.3906 -0.477421
ltibia 33.5168
lfoot -13.5682 15.3581
ltoes -18.6846
2385
root 9.84121 14.9708 -36.1376 -349.7 -3.37781 -5.65584
lowerback 19.0017 0.597211 -0.700663
upperback -2.58976 0.660857 0.233008
thorax -13.6692 0.370372 0.460728
lowerneck -9.3009 -0.578882 -2.99567
upperneck -5.13848 -0.400035 6.30409
head -0.00893583 -0.108809 2.50782
rclavicle -1.53064e-014 1.11319e-014
rhumerus -52.0523 20.5116 -103.228
rradius 44.8412
rwrist -21.0215
rhand 13.0012 -60.1591
rfingers 7.12502
rthumb -142.033 814.033
lclavicle -1.53064e-014 1.11319e-014
lhumerus -43.3715 18.4053 71.292
lradius 39.8652
lwrist -18.7451
lhand -5.63238 -31.8033
lfingers 7.12502
lthumb 20.1857 -2.83212
rfemur -1.65147 1.86222 31.7766
rtibia 20.1935
rfoot -22.516 -19.8457
rtoes -10.6083
lfemur -44.8121 -17.0773 -0.716982
ltibia 33.8106
lfoot -13.1109 15.0373
ltoes -20.1207
2386
root 9.87664 14.9866 -36.0559 -349.56 -4.2542 -5.83232
lowerback 18.9929 0.900221 -1.10676
upperback -2.36397 0.964859 0.206971
thorax -13.4126 0.538516 0.572299
lowerneck -9.63491 -0.516141 -2.90529
upperneck -5.50233 -0.301155 6.44771
head -0.0732604 -0.0588241 2.54309
rclavicle 2.06736e-014 -9.54166e-015
rhumerus -51.6732 20.4265 -103.058
rradius 44.6573
rwrist -21.0976
rhand 13.0397 -60.1299
rfingers 7.12502
rthumb -141.997 814.072
lclavicle 2.06736e-014 -9.54166e-015
lhumerus -42.8794 18.4086 71.447
lradius 39.9665
lwrist -18.9506
lhand -6.07729 -31.3875
lfingers 7.12502
lthumb 19.7581 -2.37167
rfemur -1.24192 2.59639 31.5812
rtibia 19.7834
rfoot -21.9613 -19.6288
rtoes -12.1717
lfemur -44.508 -16.5049 -0.88287
ltibia 34.2012
lfoot -13.1738 15.0563
ltoes -19.1453
2387
root 9.91469 14.9913 -35.9779 -349.345 -4.15396 -5.89108
lowerback 19.3816 0.846338 -1.1143
upperback -2.41749 0.873888 0.115386
thorax -13.7012 0.493206 0.496748
lowerneck -9.77586 -0.50681 -2.83378
upperneck -5.64684 -0.283759 6.63213
head -0.0958212 -0.0496721 2.59286
rclavicle -1.03368e-014 1.03368e-014
rhumerus -51.7343 20.1335 -103.137
rradius 44.4713
rwrist -20.8203
rhand 12.7981 -59.7251
rfingers 7.12502
rthumb -142.225 814.415
lclavicle -1.03368e-014 1.03368e-014
lhumerus -42.8096 17.8875 71.5094
lradius 40.1895
lwrist -18.7021
lhand -6.2574 -31.0602
lfingers 7.12502
lthumb 19.5849 -2.0267
rfemur -1.06333 2.71856 31.4744
rtibia 19.5964
rfoot -21.7381 -19.5969
rtoes -13.2258
lfemur -44.6828 -16.133 -1.2091
ltibia 34.5843
lfoot -12.6308 14.315
ltoes -18.2111
2388
root 9.9501 14.9951 -35.9049 -348.804 -4.23776 -5.94206
lowerback 19.3845 0.82384 -1.27423
upperback -2.40709 0.799227 0.0720468
thorax -13.6912 0.469028 0.562239
lowerneck -10.119 -0.484062 -3.08028
upperneck -5.97693 -0.201451 7.02495
head -0.144905 0.00020493 2.77536
rclavicle -1.27222e-014 4.77083e-015
rhumerus -51.4047 20.0179 -102.962
rradius 44.1348
rwrist -20.7421
rhand 13.0042 -59.3602
rfingers 7.12502
rthumb -142.03 814.832
lclavicle -1.27222e-014 4.77083e-015
lhumerus -42.3304 17.7924 71.5287
lradius 39.9944
lwrist -18.5742
lhand -6.90118 -32.3028
lfingers 7.12502
lthumb 18.9659 -3.20745
rfemur -1.25915 2.93444 31.2829
rtibia 19.4171
rfoot -21.5595 -19.387
rtoes -13.6847
lfemur -45.1663 -15.6921 -1.39202
ltibia 35.0197
lfoot -12.0745 14.0104
ltoes -17.956
2389
root 9.98663 15.004 -35.8455 -348.158 -4.34234 -5.88274
lowerback 19.2367 0.825775 -1.60812
upperback -2.35008 0.718268 0.0289205
thorax -13.5401 0.454497 0.730789
lowerneck -10.3941 -0.478097 -3.20337
upperneck -6.49645 -0.145159 7.29433
head -0.266999 0.0301921 2.89319
rclavicle -5.1684e-015 -3.97569e-015
rhumerus -51.0553 20.0908 -102.819
rradius 43.9476
rwrist -20.6769
rhand 12.8232 -58.7837
rfingers 7.12502
rthumb -142.201 815.363
lclavicle -5.1684e-015 -3.97569e-015
lhumerus -41.5659 18.0204 71.5639
lradius 39.5421
lwrist -18.8193
lhand -7.12169 -33.0429
lfingers 7.12502
lthumb 18.7538 -3.92697
rfemur -1.72018 3.25111 30.9468
rtibia 19.4209
rfoot -21.2352 -19.4407
rtoes -14.217
lfemur -45.8231 -15.2212 -1.66857
ltibia 35.4647
lfoot -11.5786 13.8649
ltoes -19.1686
2390
root 10.0223 15.0132 -35.767 -347.979 -4.35557 -5.90153
lowerback 19.3637 0.760862 -1.90128
upperback -2.13909 0.565426 0.069682
thorax -13.3692 0.405822 0.990781
lowerneck -10.6326 -0.456124 -3.15232
upperneck -7.01718 -0.0913817 7.28977
head -0.398075 0.0526489 2.88518
rclavicle 1.47101e-014 -6.36111e-015
rhumerus -50.8623 20.4026 -102.711
rradius 43.9302
rwrist -20.7049
rhand 12.6709 -58.2957
rfingers 7.12502
rthumb -142.345 815.812
lclavicle 1.47101e-014 -6.36111e-015
lhumerus -40.8922 18.3699 71.7418
lradius 39.475
lwrist -18.6837
lhand -7.2057 -32.5038
lfingers 7.12502
lthumb 18.673 -3.38004
rfemur -1.26727 3.58358 30.7802
rtibia 18.8142
rfoot -20.6518 -19.7434
rtoes -14.5169
lfemur -45.9537 -14.8879 -2.03426
ltibia 36.0132
lfoot -11.4189 13.5016
ltoes -20.6734
2391
root 10.0631 15.0139 -35.6794 -347.49 -4.66242 -6.09074
lowerback 19.0861 0.850277 -1.98449
upperback -2.1022 0.663528 0.00965631
thorax -13.167 0.452537 0.943338
lowerneck -10.5772 -0.453118 -2.89632
upperneck -7.53124 -0.0862033 7.31955
head -0.574036 0.0404282 2.84858
rclavicle -1.19271e-015 -2.38542e-015
rhumerus -50.7266 20.2943 -102.64
rradius 43.8907
rwrist -20.7169
rhand 12.9025 -58.4797
rfingers 7.12502
rthumb -142.126 815.687
lclavicle -1.19271e-015 -2.38542e-015
lhumerus -40.4668 18.1818 71.7972
lradius 39.3833
lwrist -18.3652
lhand -7.58723 -31.9621
lfingers 7.12502
lthumb 18.306 -2.80349
rfemur -1.40464 3.94469 30.6365
rtibia 18.7172
rfoot -20.492 -19.6201
rtoes -14.8159
lfemur -46.2642 -14.5705 -2.02394
ltibia 36.4016
lfoot -11.1984 13.1466
ltoes -19.0994
2392
root 10.1346 15.0407 -35.4878 -348.357 -6.54364 -6.55235
lowerback 18.802 1.39869 -1.89759
upperback -1.43196 1.41019 -0.0972269
thorax -12.2486 0.776986 0.564872
lowerneck -10.6846 -0.403897 -3.08765
upperneck -7.71694 0.0207698 7.66442
head -0.621177 0.098594 3.00699
rclavicle -4.37326e-015 -4.77083e-015
rhumerus -50.5964 20.3679 -102.568
rradius 43.9041
rwrist -20.7677
rhand 12.952 -58.6755
rfingers 7.12502
rthumb -142.079 815.504
lclavicle -4.37326e-015 -4.77083e-015
lhumerus -40.2144 17.9579 71.8508
lradius 39.248
lwrist -17.7794
lhand -7.96091 -31.8129
lfingers 7.12502
lthumb 17.9464 -2.62087
rfemur 0.450093 4.53343 30.1727
rtibia 18.2245
rfoot -20.3724 -18.4435
rtoes -16.2281
lfemur -44.1431 -14.9583 -2.11631
ltibia 36.864
lfoot -12.1021 14.0397
ltoes -14.1654
